<?xml version="1.0" standalone="no"?>
<!DOCTYPE svg PUBLIC "-//W3C//DTD SVG 20010904//EN"
 "http://www.w3.org/TR/2001/REC-SVG-20010904/DTD/svg10.dtd">
<svg version="1.0" xmlns="http://www.w3.org/2000/svg"
 width="300.000000pt" height="300.000000pt" viewBox="0 0 300.000000 300.000000"
 preserveAspectRatio="xMidYMid meet">
<metadata>
Created by potrace 1.11, written by Peter Selinger 2001-2013
</metadata>
<g transform="translate(0.000000,300.000000) scale(0.100000,-0.100000)"
fill="#000000" stroke="none">
<path d="M395 2980 c-61 -24 -118 -70 -150 -120 -53 -83 -51 -54 -50 -1195 1
-933 4 -1065 17 -1103 22 -60 53 -101 104 -141 89 -68 37 -64 1007 -65 482 -1
877 2 877 7 0 4 -9 40 -21 80 -41 142 -48 171 -45 175 2 2 30 -22 63 -53 32
-31 76 -73 98 -92 22 -19 69 -63 105 -96 61 -58 190 -174 269 -242 20 -16 58
-51 87 -77 28 -27 54 -48 58 -48 3 0 5 622 4 1383 l-3 1382 -27 53 c-33 64
-82 112 -146 144 l-47 23 -1075 2 c-1042 2 -1077 2 -1125 -17z m889 -687 c3
-4 -26 -19 -66 -34 -100 -36 -180 -74 -243 -115 -75 -47 -77 -59 -5 -23 61 30
158 64 240 84 108 26 361 37 480 22 101 -14 262 -63 355 -109 l60 -29 -30 26
c-36 31 -259 142 -303 151 -66 13 -21 39 50 29 113 -16 301 -98 351 -153 50
-56 172 -419 193 -577 3 -27 10 -71 14 -98 4 -26 8 -82 9 -125 l2 -78 -50 -52
c-28 -29 -55 -52 -61 -52 -5 0 -10 -4 -10 -9 0 -12 -115 -67 -180 -85 -59 -16
-160 -27 -160 -17 0 3 -21 29 -45 56 -48 53 -53 65 -31 65 44 0 246 133 246
163 0 3 -23 -7 -50 -23 -28 -17 -53 -30 -56 -30 -2 0 -23 -9 -47 -19 -54 -25
-198 -68 -257 -77 -88 -13 -283 -8 -368 10 -113 23 -239 67 -320 112 -56 31
-64 33 -47 14 45 -53 84 -82 155 -117 41 -20 77 -37 79 -39 2 -2 -18 -30 -44
-62 -48 -59 -48 -59 -94 -55 -152 14 -297 86 -383 191 -25 30 -27 37 -23 115
8 197 59 425 139 625 62 154 69 166 123 200 121 78 345 146 377 115z"/>
<path d="M1204 1742 c-36 -5 -99 -67 -112 -109 -24 -83 10 -173 79 -207 130
-65 263 80 204 221 -13 31 -59 82 -75 83 -3 0 -21 4 -40 8 -19 4 -45 6 -56 4z"/>
<path d="M1750 1736 c-49 -15 -74 -35 -97 -76 -69 -122 34 -274 166 -245 70
15 114 78 115 166 0 47 -5 63 -27 93 -44 57 -101 80 -157 62z"/>
</g>
</svg>
